<?xml version="1.0" encoding="UTF-8" standalone="no"?>
<svg
   width="900"
   height="300"
   viewBox="0 0 674.99999 225"
   version="1.1"
   id="svg2"
   sodipodi:docname="isotipo-light.svg"
   inkscape:version="1.4 (e7c3feb1, 2024-10-09)"
   xmlns:inkscape="http://www.inkscape.org/namespaces/inkscape"
   xmlns:sodipodi="http://sodipodi.sourceforge.net/DTD/sodipodi-0.dtd"
   xmlns="http://www.w3.org/2000/svg"
   xmlns:svg="http://www.w3.org/2000/svg">
  <defs
     id="defs2">
    <rect
       x="487.77676"
       y="11.17046"
       width="417.03052"
       height="301.60242"
       id="rect3" />
  </defs>
  <sodipodi:namedview
     id="namedview2"
     pagecolor="#ffffff"
     bordercolor="#000000"
     borderopacity="0.25"
     inkscape:showpageshadow="2"
     inkscape:pageopacity="0.0"
     inkscape:pagecheckerboard="0"
     inkscape:deskcolor="#d1d1d1"
     inkscape:document-units="pt"
     inkscape:zoom="0.56730267"
     inkscape:cx="530.58097"
     inkscape:cy="160.4082"
     inkscape:window-width="1440"
     inkscape:window-height="777"
     inkscape:window-x="563"
     inkscape:window-y="1105"
     inkscape:window-maximized="0"
     inkscape:current-layer="svg2" />
  <g
     id="#ffffffff"
     transform="translate(-13.756476,-10.492267)" />
  <g
     id="#55a9deff"
     transform="matrix(0.72127838,0,0,0.7347242,-110.6349,-112.35082)"
     style="fill:#f7fff7;fill-opacity:1">
    <path
       fill="#55a9de"
       opacity="1"
       d="m 237.36,183.96 c -0.15,-16.3 14.36,-30.89 30.64,-30.98 25.34,-0.11 50.7,-0.05 76.05,-0.03 15.88,0.22 30.32,14.2 30.52,30.18 0.14,8.98 0.06,17.98 0.06,26.97 0.44,6.9 -5.8,13.27 -12.65,13.29 -6.8,0.44 -13.36,-5.42 -13.47,-12.27 -0.25,-9.02 0.27,-18.06 -0.2,-27.06 -0.16,-3.2 -3.31,-5.18 -6.3,-4.85 -24.01,0.01 -48.03,-0.02 -72.04,0.01 -3.37,-0.35 -6.73,2.25 -6.35,5.83 -0.14,18.3 -0.02,36.6 -0.05,54.91 0.44,8.41 -4.54,16.75 -12.01,20.57 -4.13,2.34 -8.99,2.62 -13.62,2.64 -17,-0.04 -34,0 -51,-0.03 -2.08,0.08 -4.67,-0.02 -6,1.92 -1.48,1.99 -1.12,4.6 -1.24,6.93 0.08,23.67 -0.05,47.35 0.07,71.02 -0.26,3.06 2.13,6.01 5.32,5.77 25.95,0.11 51.91,0.01 77.87,0.05 16.81,0.18 33.38,-5.41 47.35,-14.6 15.3,-10.16 27.09,-25.44 33.23,-42.74 1.65,-4.4 2.25,-9.72 6.24,-12.76 5.49,-4.72 14.89,-3.67 19,2.36 1.98,3.15 3.16,7.12 2.12,10.81 -5.12,19.83 -16.13,37.97 -30.88,52.12 -20.23,19.4 -47.9,30.87 -75.97,31.13 -26.69,0.04 -53.38,0.07 -80.07,-0.02 -16.22,-0.18 -30.69,-14.81 -30.54,-31.06 -0.08,-25.01 -0.06,-50.03 0,-75.04 -0.36,-13.29 8.6,-26.32 21.29,-30.43 6.49,-2.36 13.49,-1.75 20.26,-1.8 14.15,-0.07 28.3,0.1 42.45,-0.1 -0.19,-17.58 -0.06,-35.16 -0.08,-52.74 z"
       id="path1"
       style="fill:#f7fff7;fill-opacity:1" />
  </g>
  <g
     id="#9ac456ff"
     transform="matrix(0.72127838,0,0,0.7347242,-110.6349,-112.35082)"
     style="fill:#4ecdc4;fill-opacity:1">
    <path
       fill="#9ac456"
       opacity="1"
       d="m 284.62,257.64 c 18.67,-13.35 41.48,-20.75 64.44,-20.83 26.3,0 52.61,-0.05 78.92,0.02 15.88,0.28 30.2,14.18 30.5,30.14 0.16,25.7 0.1,51.4 0.04,77.09 0.02,12.15 -7.84,23.69 -18.95,28.45 -7.35,3.54 -15.68,2.54 -23.56,2.67 -13.81,0.12 -27.63,-0.23 -41.43,0.19 0.14,16.88 -0.01,33.75 0.07,50.63 0.38,8.87 -3.11,17.96 -9.63,24.04 -5.71,5.82 -13.9,8.85 -21.97,9.1 -21.66,-0.04 -43.33,-0.01 -64.99,-0.01 -6.02,-0.06 -12.19,0.46 -18.01,-1.42 -12.94,-3.58 -22.68,-16.3 -22.69,-29.74 -0.07,-8.66 -0.02,-17.33 0.01,-25.99 -0.15,-4.77 2.55,-9.57 6.79,-11.79 3.49,-1.82 7.74,-1.95 11.43,-0.67 3.86,1.84 6.94,5.47 7.8,9.7 1,10.66 -1.05,21.57 1.2,32.1 2.64,1.15 5.48,1.67 8.36,1.53 23.33,-0.1 46.67,0.12 70,-0.12 3.13,0.14 5.77,-2.58 5.47,-5.71 0.12,-19 -0.02,-38 0.06,-57 0.42,-11.12 10.33,-20.96 21.5,-21.14 19.01,-0.2 38.03,0.12 57.05,-0.16 3.13,0.33 5.44,-2.7 5.17,-5.66 0.14,-23.68 -0.04,-47.37 0.09,-71.06 0.03,-2.46 -0.43,-4.88 -0.83,-7.29 -2.04,-0.8 -4.13,-1.65 -6.37,-1.55 -24.35,-0.07 -48.71,0.02 -73.06,-0.04 -28.21,-0.92 -56.49,13.1 -72.58,36.32 -4.15,6.11 -8.05,12.5 -10.45,19.52 -1.39,3.67 -2.25,7.56 -4.01,11.08 -3.97,6.67 -14.18,8.28 -19.83,2.84 -4.14,-3.28 -5.34,-9.05 -3.79,-13.96 6.91,-24.52 22.33,-46.67 43.25,-61.28 z"
       id="path2"
       style="fill:#4ecdc4;fill-opacity:1" />
  </g>
  <text
     xml:space="preserve"
     style="font-style:normal;font-variant:normal;font-weight:900;font-stretch:normal;font-size:97.1208px;font-family:Roboto;-inkscape-font-specification:'Roboto, Heavy';font-variant-ligatures:normal;font-variant-caps:normal;font-variant-numeric:normal;font-variant-east-asian:normal;text-align:start;writing-mode:lr-tb;direction:ltr;text-anchor:start;fill:#4ecdc4;fill-opacity:1;stroke-width:1.06485"
     x="242.79541"
     y="116.13934"
     id="text2"><tspan
       sodipodi:role="line"
       id="tspan2"
       style="font-style:normal;font-variant:normal;font-weight:900;font-stretch:normal;font-size:97.1208px;font-family:Roboto;-inkscape-font-specification:'Roboto, Heavy';font-variant-ligatures:normal;font-variant-caps:normal;font-variant-numeric:normal;font-variant-east-asian:normal;fill:#4ecdc4;fill-opacity:1;stroke-width:1.06485"
       x="242.79541"
       y="116.13934">farmacia</tspan></text>
  <text
     xml:space="preserve"
     style="font-style:normal;font-variant:normal;font-weight:900;font-stretch:normal;font-size:83.0643px;font-family:Roboto;-inkscape-font-specification:'Roboto, Heavy';font-variant-ligatures:normal;font-variant-caps:normal;font-variant-numeric:normal;font-variant-east-asian:normal;text-align:start;writing-mode:lr-tb;direction:ltr;text-anchor:start;fill:#4ecdc4;fill-opacity:1;stroke-width:0.819771"
     x="244.91632"
     y="189.0791"
     id="text2-7"><tspan
       sodipodi:role="line"
       id="tspan2-2"
       style="font-style:normal;font-variant:normal;font-weight:900;font-stretch:normal;font-size:83.0643px;font-family:Roboto;-inkscape-font-specification:'Roboto, Heavy';font-variant-ligatures:normal;font-variant-caps:normal;font-variant-numeric:normal;font-variant-east-asian:normal;fill:#4ecdc4;fill-opacity:1;stroke-width:0.819771"
       x="244.91632"
       y="189.0791">descuento</tspan></text>
  <text
     xml:space="preserve"
     transform="matrix(0.75,0,0,0.75,3.7598163e-6,1.2938889e-6)"
     id="text3"
     style="font-size:192px;text-align:start;writing-mode:lr-tb;direction:ltr;white-space:pre;shape-inside:url(#rect3);display:inline;fill:#000000" />
</svg>
