<svg width="800" height="600" viewBox="0 0 800 600" fill="none" xmlns="http://www.w3.org/2000/svg">
  <!-- Fondo con gradiente -->
  <rect width="800" height="600" rx="20" fill="url(#paint0_linear)" />
  
  <!-- Edificio de farmacia -->
  <rect x="100" y="200" width="250" height="300" fill="#ffffff" stroke="#16a34a" stroke-width="4" />
  <rect x="150" y="300" width="150" height="200" fill="#ffffff" stroke="#16a34a" stroke-width="4" />
  <path d="M100 200L225 100L350 200" fill="#16a34a" stroke="#16a34a" stroke-width="4" />
  
  <!-- Cruz de farmacia -->
  <rect x="200" y="220" width="50" height="10" fill="#ff0000" />
  <rect x="220" y="200" width="10" height="50" fill="#ff0000" />
  
  <!-- Etiqueta de descuento -->
  <circle cx="500" cy="250" r="120" fill="#fff" stroke="#ff6b6b" stroke-width="4" />
  <circle cx="500" cy="250" r="100" fill="#ff6b6b" />
  <path d="M430 200L570 300" stroke="#fff" stroke-width="5" />
  <text x="450" y="230" font-family="Arial" font-size="40" font-weight="bold" fill="#fff">20%</text>
  <text x="440" y="280" font-family="Arial" font-size="30" font-weight="bold" fill="#fff">DCTO</text>
  
  <!-- Medicamentos -->
  <rect x="450" y="400" width="80" height="120" rx="5" fill="#ffffff" stroke="#16a34a" stroke-width="3" />
  <text x="460" y="460" font-family="Arial" font-size="16" fill="#16a34a">MEDICINA</text>
  
  <rect x="550" y="420" width="80" height="100" rx="5" fill="#ffffff" stroke="#16a34a" stroke-width="3" />
  <text x="565" y="470" font-family="Arial" font-size="16" fill="#16a34a">JARABE</text>
  
  <rect x="650" y="440" width="60" height="80" rx="5" fill="#ffffff" stroke="#16a34a" stroke-width="3" />
  <text x="655" y="480" font-family="Arial" font-size="13" fill="#16a34a">CREMA</text>
  
  <!-- Personas -->
  <circle cx="150" cy="550" r="30" fill="#16a34a" />
  <circle cx="250" cy="550" r="30" fill="#16a34a" />
  
  <!-- Definición del gradiente de fondo -->
  <defs>
    <linearGradient id="paint0_linear" x1="0" y1="0" x2="800" y2="600" gradientUnits="userSpaceOnUse">
      <stop offset="0" stop-color="#f0fdf4" />
      <stop offset="1" stop-color="#dcfce7" />
    </linearGradient>
  </defs>
</svg> 