<svg xmlns="http://www.w3.org/2000/svg" width="24" height="24" viewBox="0 0 24 24" fill="none" stroke="#16a34a" stroke-width="2" stroke-linecap="round" stroke-linejoin="round">
  <path d="M19 9L8 9a2 2 0 0 0-2 2v6a2 2 0 0 0 2 2h11a2 2 0 0 0 2-2v-6a2 2 0 0 0-2-2z"></path>
  <path d="M9 9V7a2 2 0 0 1 2-2h2a2 2 0 0 1 2 2v2"></path>
  <circle cx="8.5" cy="13.5" r="0.5" fill="#16a34a" stroke="none"></circle>
  <circle cx="10.5" cy="17" r="0.5" fill="#16a34a" stroke="none"></circle>
  <circle cx="13" cy="15" r="0.5" fill="#16a34a" stroke="none"></circle>
  <circle cx="16" cy="14" r="0.5" fill="#16a34a" stroke="none"></circle>
  <circle cx="17" cy="17" r="0.5" fill="#16a34a" stroke="none"></circle>
</svg> 