<svg xmlns="http://www.w3.org/2000/svg" width="24" height="24" viewBox="0 0 24 24" fill="none" stroke="#16a34a" stroke-width="2" stroke-linecap="round" stroke-linejoin="round">
  <circle cx="12" cy="12" r="7"></circle>
  <path d="M12 9v6"></path>
  <path d="M9 12h6"></path>
  <path d="M11.6 5.2c.8-1.3 2-1.3 2.8 0a2.4 2.4 0 0 0 3.2.8c1.3-.8 2.4.2 2.4 1.7a2.4 2.4 0 0 0 1.8 2.8c1.5.5 1.5 2 0 2.5a2.4 2.4 0 0 0-1.8 2.8c0 1.5-1.1 2.5-2.4 1.7a2.4 2.4 0 0 0-3.2.8c-.8 1.3-2 1.3-2.8 0a2.4 2.4 0 0 0-3.2-.8c-1.3.8-2.4-.2-2.4-1.7a2.4 2.4 0 0 0-1.8-2.8c-1.5-.5-1.5-2 0-2.5a2.4 2.4 0 0 0 1.8-2.8c0-1.5 1.1-2.5 2.4-1.7a2.4 2.4 0 0 0 3.2-.8z" stroke-width="0.5"></path>
</svg> 